# xmcd
#
# Track frame offsets: 
#        150
#        3440
#        23203
#        41933
#        61439
#        62952
#        82381
#        101325
#        116783
#        118975
#        135883
#        152333
#        174814
#        176572
#        192610
#        206064
#        220547
#
# Disc length: 2956 seconds
#
# Revision: 0
# Processed by: cddbd v1.5.2PL0 Copyright (c) Steve Scherf et al.
# Submitted via: ExactAudioCopy v0.99pb5
#
DISCID=f10b8a11
DTITLE=Funky DL - The 4th Quarter
DYEAR=2007
DGENRE=Hip-Hop
TTITLE0=The Soul Quarter Intro
TTITLE1=Love, Honesty and Discipline
TTITLE2=Nicole feat. Xanton'e Blacq
TTITLE3=Danger feat. Dukus Alemay
TTITLE4=The New Age Quarter Intro
TTITLE5=Scratchin' My Head
TTITLE6=Watchin' The World
TTITLE7=The Bump
TTITLE8=The Jazz Quarter Intro
TTITLE9=International feat. DJ Kofi
TTITLE10=I Love...
TTITLE11=Pay Check feat. Lei-an
TTITLE12=The Authentic Quarter Intro
TTITLE13=Taking Rap Back
TTITLE14=The 3 Minute Preview
TTITLE15=Play
TTITLE16=The 4th Quarter Outro
EXTD=
EXTT0=
EXTT1=
EXTT2=
EXTT3=
EXTT4=
EXTT5=
EXTT6=
EXTT7=
EXTT8=
EXTT9=
EXTT10=
EXTT11=
EXTT12=
EXTT13=
EXTT14=
EXTT15=
EXTT16=
PLAYORDER=
